<?xml version="1.0" encoding="iso-8859-1"?>
<!-- Generator: Adobe Illustrator 19.0.0, SVG Export Plug-In . SVG Version: 6.00 Build 0)  -->
<svg version="1.1" id="Capa_1" xmlns="http://www.w3.org/2000/svg" xmlns:xlink="http://www.w3.org/1999/xlink" x="0px" y="0px"
	 viewBox="0 0 512.001 512.001" style="enable-background:new 0 0 512.001 512.001;" xml:space="preserve">
<g>
	<g>
		<path d="M319.487,130.099H135.233c-4.155,0-7.522,3.367-7.522,7.522s3.367,7.522,7.522,7.522h184.253
			c4.155,0,7.522-3.367,7.522-7.522S323.642,130.099,319.487,130.099z"/>
	</g>
</g>
<g>
	<g>
		<path d="M197.281,304.723h-62.048c-4.155,0-7.522,3.367-7.522,7.522s3.367,7.522,7.522,7.522h62.048
			c4.155,0,7.522-3.367,7.522-7.522S201.437,304.723,197.281,304.723z"/>
	</g>
</g>
<g>
	<g>
		<path d="M197.281,339.649h-62.048c-4.155,0-7.522,3.367-7.522,7.522s3.367,7.522,7.522,7.522h62.048
			c4.155,0,7.522-3.367,7.522-7.522S201.437,339.649,197.281,339.649z"/>
	</g>
</g>
<g>
	<g>
		<path d="M197.281,374.572h-62.048c-4.155,0-7.522,3.367-7.522,7.522s3.367,7.522,7.522,7.522h62.048
			c4.155,0,7.522-3.367,7.522-7.522S201.437,374.572,197.281,374.572z"/>
	</g>
</g>
<g>
	<g>
		<path d="M397.272,121.929c12.802-37.74,59.559-49.119,87.87-24.169c5.506,6.261,9.944,14.538,11.994,23.743
			c0.903,4.055,4.924,6.617,8.976,5.707c4.055-0.902,6.61-4.921,5.707-8.976c-2.302-10.338-6.871-19.843-13.581-28.252
			c-6.56-8.228-19.619-15.181-30.304-18.135c2.36-3.38,3.674-7.441,3.674-11.75c-0.001-7.276-3.722-13.86-9.955-17.613
			l-14.696-8.847c0-13.046-9.951-21.293-20.564-21.293h-3.18c-9.298,0-17.165,6.207-19.699,14.693H68.095
			c-2.534-8.486-10.401-14.693-19.699-14.693h-3.18c-10.616,0-20.564,8.245-20.564,21.293L9.955,42.484
			C3.722,46.237,0,52.82,0,60.096c0,7.276,3.722,13.86,9.955,17.614l14.696,8.848v0.727c0,11.339,9.225,20.564,20.564,20.564h3.18
			c9.298,0,17.165-6.207,19.699-14.692h0.031v325.689h-0.031c-2.534-8.485-10.402-14.692-19.699-14.692h-3.18
			c-10.582,0-20.564,8.211-20.564,21.292l-14.696,8.848C3.722,438.044,0.001,444.627,0,451.904c0,7.276,3.721,13.86,9.955,17.615
			l14.696,8.847v0.727c0,11.34,9.225,20.565,20.564,20.565h3.18c9.298,0,17.165-6.207,19.699-14.693h150.157
			c4.155,0,7.522-3.367,7.522-7.522s-3.367-7.522-7.522-7.522H68.961V433.89c14.108,0,315.588,0,333.686,0v36.031H253.355
			c-4.155,0-7.522,3.367-7.522,7.522s3.367,7.522,7.522,7.522h150.156c2.534,8.486,10.401,14.693,19.699,14.693h3.18
			c10.616,0,20.564-8.245,20.564-21.293l14.697-8.848c6.233-3.753,9.954-10.337,9.954-17.614c-0.001-7.276-3.722-13.86-9.955-17.613
			l-14.696-8.848c0-13.049-9.955-21.292-20.564-21.292h-3.18c-9.298,0-17.165,6.207-19.699,14.692h-0.031V265.94
			c0.218-0.05,0.446-0.101,0.659-0.149c10.178-2.333,13.033-15.457,4.765-21.817l-1.473-1.133
			c21.72-5.834,37.696-11.372,47.707-15.19c9.772-3.727,10.869-17.122,1.837-22.401l-2.615-1.526
			c11.674-3.922,41.967-11.092,54.8-46.169c1.427-3.901-0.579-8.22-4.481-9.648c-3.897-1.424-8.22,0.58-9.648,4.481
			c-5.78,15.8-18.25,27.936-34.212,33.298l-23.268,7.815c-7.544,2.534-8.59,12.81-1.728,16.818l8.857,5.173
			c-11.326,4.115-28.219,9.632-50.535,15.263c-0.004,0.001-0.007,0.001-0.007,0.001l-0.191,0.049
			c-8.287,2.09-10.322,12.83-3.689,17.805c1.833,1.41,0.214,0.164,4.903,3.772c-19.62,4.268-41.896,7.75-42.899,7.75
			c-3.5,0.512-6.402,2.768-7.759,6.035c-2.397,5.765,1.187,9.74,2.631,11.687c-12.201,2.425-25.507,4.75-37.928,6.481
			l133.296-133.295c2.938-2.939,2.938-7.701,0-10.638c-2.938-2.936-7.7-2.938-10.638,0L298.567,273.694
			c2.061-14.792,4.7-28.962,6.48-37.928l1.943,1.44c6.063,4.488,14.696,0.869,15.78-6.57c2.157-14.802,4.825-29.463,7.749-42.897
			l3.778,4.909c5.177,6.736,15.755,4.427,17.799-3.696c5.648-22.41,11.185-39.37,15.314-50.732l5.173,8.856
			c0.081,0.138,0.183,0.26,0.271,0.393c4.303,6.563,14.133,5.081,16.547-2.119C401.226,110.145,395.695,126.604,397.272,121.929z
			 M446.956,51.196c7.195,4.332,9.607,5.072,9.607,8.899c0,3.905-2.711,4.75-9.607,8.901V51.196z M417.691,32.909
			c0-3.044,2.476-5.521,5.52-5.521h3.18c3.044,0,5.52,2.477,5.52,5.521c0,13.517,0,2.446,0,38.781
			c-4.993,1.302-9.881,3.178-14.221,5.376C417.691,66.648,417.691,54.927,417.691,32.909z M24.65,68.996
			c-7.2-4.335-9.606-5.073-9.606-8.9c0-3.831,2.407-4.564,9.606-8.899V68.996z M53.916,87.283c0,3.044-2.476,5.52-5.52,5.52h-3.18
			c-3.044,0-5.52-2.476-5.52-5.52V32.909c0-3.044,2.476-5.521,5.52-5.521h3.18c3.044,0,5.52,2.477,5.52,5.521
			C53.916,39.263,53.916,80.934,53.916,87.283z M24.65,460.805c-7.2-4.335-9.606-5.072-9.606-8.901c0-3.831,2.407-4.564,9.606-8.899
			V460.805z M53.916,479.092c0,3.044-2.476,5.521-5.52,5.521h-3.18c-3.044,0-5.52-2.477-5.52-5.521v-54.376
			c0-3.044,2.476-5.52,5.52-5.52h3.18c3.044,0,5.52,2.476,5.52,5.52C53.916,431.07,53.916,472.741,53.916,479.092z M446.957,443.004
			c6.878,4.141,9.606,4.989,9.606,8.899c0,3.903-2.707,4.747-9.606,8.901V443.004z M417.691,424.717c0-3.044,2.476-5.52,5.52-5.52
			h3.18c3.044,0,5.52,2.476,5.52,5.52v54.376c0,3.044-2.476,5.521-5.52,5.521h-3.18c-3.044,0-5.52-2.477-5.52-5.521
			C417.691,472.738,417.691,431.068,417.691,424.717z M388.437,104.962c-4.04,7.156-5.505,12.395-9.26,23.576l-1.526-2.615
			c-5.272-9.021-18.674-7.935-22.401,1.838c-5.794,15.198-11.003,32.126-15.189,47.705c-1.313-1.705-3.203-4.598-7.497-5.828
			c-2.046-0.588-4.181-0.608-6.204-0.141c-1.17-2.635-3.804-4.474-6.873-4.474H135.233c-4.155,0-7.522,3.367-7.522,7.522
			s3.367,7.522,7.522,7.522h181.578c-1.2,5.298-2.632,12.009-4.134,19.88H135.233c-4.155,0-7.522,3.367-7.522,7.522
			s3.367,7.522,7.522,7.522h174.757c-0.294,1.764-0.588,3.557-0.879,5.395c-7.398-3.432-16.461,0.813-18.167,9.201
			c-0.312,1.532-0.669,3.323-1.053,5.286H135.233c-4.155,0-7.522,3.367-7.522,7.522s3.367,7.522,7.522,7.522H287.1
			c-1.075,6.139-2.179,12.917-3.174,19.88H135.233c-4.155,0-7.522,3.367-7.522,7.522s3.367,7.522,7.522,7.522h148.235
			c0.313,0.946,0.731,1.853,1.226,2.725l-10.3,10.3c-2.954-2.594-7.451-2.489-10.272,0.332c-2.819,2.819-2.925,7.317-0.331,10.271
			l-5.391,5.39l-4.191-4.191c-7.19-7.188-18.821-7.188-26.009,0c-5.992,5.993-6.976,15.021-3.01,22.031l-13.906,13.906
			c-1.752,1.753-2.898,3.972-3.315,6.419l-1.878,11.076c-0.643,3.789,0.597,7.675,3.315,10.393c2.245,2.245,5.286,3.481,8.412,3.481
			c1.331,0,1.018-0.003,13.053-2.044c2.443-0.413,4.662-1.559,6.422-3.315l13.913-13.913c7.194,4.048,16.186,2.833,22.025-3.004
			c7.168-7.17,7.168-18.837,0-26.008l-0.001-0.001l-4.191-4.191l5.391-5.391c1.415,1.243,3.182,1.873,4.953,1.873
			c1.925,0,3.85-0.734,5.32-2.203c2.819-2.819,2.925-7.317,0.33-10.271l10.322-10.322c2.938,1.642,6.291,2.305,9.703,1.879
			c15.481-1.954,32.892-4.979,48.255-8.107c8.32-1.695,12.668-10.687,9.199-18.166c9.735-1.542,18.462-3.146,25.924-4.639v149.694
			H83.17V93.156h305.267V104.962z M238.839,325.04c-1.305-1.303-1.31-3.42,0.001-4.733c1.303-1.304,3.42-1.31,4.733,0.001
			c1.396,1.396-4.104-4.103,19.021,19.02c1.305,1.306,1.305,3.429,0.001,4.734c-1.307,1.305-3.429,1.304-4.734,0.001
			C250.861,337.062,250.2,336.402,238.839,325.04z M240.078,347.556l-12.71,12.709l-5.7,0.967l0.966-5.7l12.71-12.71
			C238.248,345.725,237.174,344.65,240.078,347.556z M68.961,78.112V42.081h333.686v36.031
			C392.084,78.112,86.719,78.112,68.961,78.112z"/>
	</g>
</g>
<g>
</g>
<g>
</g>
<g>
</g>
<g>
</g>
<g>
</g>
<g>
</g>
<g>
</g>
<g>
</g>
<g>
</g>
<g>
</g>
<g>
</g>
<g>
</g>
<g>
</g>
<g>
</g>
<g>
</g>
</svg>
